0
SECTION
2
HEADER
9
$ACADVER
1
AC1015
0
ENDSEC
0
SECTION
2
ENTITIES
0
LWPOLYLINE
5
1
8
walkablearea
90
15
70
1
10
-12.000000
20
23.000000
10
-12.000000
20
12.000000
10
-7.000000
20
12.000000
10
-7.000000
20
1.000000
10
-12.000000
20
1.000000
10
-12.000000
20
-10.000000
10
45.000000
20
-11.000000
10
45.000000
20
-11.000000
10
45.000000
20
-4.000000
10
45.000000
20
-4.000000
10
47.000000
20
-4.000000
10
47.000000
20
14.000000
10
47.000000
20
14.000000
10
45.000000
20
14.000000
10
45.000000
20
23.000000
0
LWPOLYLINE
5
2
8
distribution
90
5
70
1
10
-11.781875
20
22.737323
10
-11.781875
20
12.226874
10
-7.077601
20
12.226874
10
-7.162363
20
22.779704
10
-7.162363
20
22.779704
0
LWPOLYLINE
5
3
8
distribution
90
4
70
1
10
-11.647501
20
0.781892
10
-11.701425
20
-9.679289
10
-7.010070
20
-9.679289
10
-7.063994
20
0.781892
0
LWPOLYLINE
5
4
8
exit
90
4
70
1
10
45.104348
20
13.840591
10
46.702330
20
13.789043
10
46.702330
20
-3.840313
10
45.001252
20
-3.737217
0
LWPOLYLINE
5
5
8
obstacle
90
4
70
1
10
16.149889
20
19.423515
10
16.237185
20
15.145977
10
20.078240
20
15.320570
10
20.165537
20
19.423515
0
LWPOLYLINE
5
6
8
obstacle
90
10
70
1
10
17.983119
20
11.043032
10
16.935559
20
10.170065
10
16.673669
20
7.987648
10
17.808526
20
6.503604
10
19.816350
20
5.892527
10
21.125800
20
6.590901
10
21.824174
20
8.249538
10
21.824174
20
9.733582
10
20.863910
20
10.955735
10
19.379866
20
11.217625
0
LWPOLYLINE
5
7
8
obstacle
90
9
70
1
10
18.332306
20
1.353099
10
18.419603
20
-6.678197
10
19.903647
20
-6.678197
10
19.641757
20
0.916615
10
28.109536
20
1.003912
10
28.022239
20
7.987648
10
26.014415
20
7.987648
10
26.450899
20
2.226066
10
18.245009
20
2.313362
0
ENDSEC
0
EOF